<svg width="215" height="60" viewBox="0 0 215 60" fill="none" xmlns="http://www.w3.org/2000/svg">
	<g clip-path="url(#clip0_2_1082)">
		<path d="M13.6699 16.05H21.7699V19.21C23.2599 17.29 25.3899 15.54 28.6399 15.54C31.7099 15.54 34.0599 16.9 35.2899 19.29C37.2899 16.99 39.6399 15.54 43.0099 15.54C47.9099 15.54 50.8999 18.61 50.8999 23.98V39.12H42.7999V26.58C42.7999 24.06 41.5599 22.7 39.6399 22.7C37.7199 22.7 36.3099 24.06 36.3099 26.58V39.12H28.2499V26.58C28.2499 24.06 26.9699 22.7 25.0499 22.7C23.1299 22.7 21.7699 24.06 21.7699 26.58V39.12H13.6699V16.05Z" fill="#F7F7F7" />
		<path d="M50.6499 27.7V27.61C50.6499 21.04 56.0199 15.54 63.3999 15.54C70.7799 15.54 76.1099 20.96 76.1099 27.52V27.61C76.1099 34.18 70.7399 39.68 63.3199 39.68C55.8999 39.68 50.6499 34.26 50.6499 27.7ZM68.2599 27.7V27.61C68.2599 24.75 66.1699 22.36 63.3099 22.36C60.4499 22.36 58.4899 24.71 58.4899 27.52V27.61C58.4899 30.42 60.5399 32.81 63.3899 32.81C66.2399 32.81 68.2499 30.46 68.2499 27.69L68.2599 27.7Z" fill="#F7F7F7" />
		<path d="M75.0898 27.7V27.61C75.0898 21.04 80.4598 15.54 87.8398 15.54C95.2198 15.54 100.55 20.96 100.55 27.52V27.61C100.55 34.18 95.1798 39.68 87.7598 39.68C80.3398 39.68 75.0898 34.26 75.0898 27.7ZM92.6998 27.7V27.61C92.6998 24.75 90.6098 22.36 87.7498 22.36C84.8898 22.36 82.9298 24.71 82.9298 27.52V27.61C82.9298 30.42 84.9798 32.81 87.8298 32.81C90.6798 32.81 92.6898 30.46 92.6898 27.69L92.6998 27.7Z" fill="#F7F7F7" />
		<path d="M97.96 28.2101V28.1201C97.96 21.8901 102.82 16.6001 109.26 16.6001C113.44 16.6001 116.04 18.3501 118.09 20.5201L115.92 22.8201C114.17 20.9901 112.21 19.4901 109.22 19.4901C104.74 19.4901 101.33 23.2901 101.33 28.0201V28.1001C101.33 32.8801 104.83 36.6701 109.43 36.6701C112.24 36.6701 114.42 35.2601 116.17 33.3901L118.26 35.3501C116.04 37.8201 113.4 39.6101 109.26 39.6101C102.82 39.6101 97.96 34.3601 97.96 28.1801V28.2101Z" fill="#F7F7F7" />
		<path d="M121.85 7.98999H125.13V39.12H121.85V7.98999Z" fill="#F7F7F7" />
		<path d="M129.27 28.2101V28.1201C129.27 21.8901 134.13 16.6001 140.79 16.6001C147.45 16.6001 152.26 21.8001 152.26 28.0301V28.1101C152.26 34.3401 147.36 39.6301 140.7 39.6301C134.04 39.6301 129.27 34.4301 129.27 28.2001V28.2101ZM148.89 28.2101V28.1201C148.89 23.3901 145.35 19.5101 140.7 19.5101C136.05 19.5101 132.64 23.3901 132.64 28.0401V28.1201C132.64 32.8501 136.14 36.6901 140.79 36.6901C145.44 36.6901 148.89 32.8501 148.89 28.2001V28.2101Z" fill="#F7F7F7" />
		<path d="M155.72 30.7701V17.0801H159V29.9601C159 34.0501 161.22 36.6101 165.1 36.6101C168.98 36.6101 171.71 33.8401 171.71 29.7001V17.0801H174.95V39.1301H171.71V35.2901C170.22 37.6801 167.96 39.6001 164.16 39.6001C158.83 39.6001 155.72 36.0201 155.72 30.7701Z" fill="#F7F7F7" />
		<path d="M178.92 28.17V28.08C178.92 20.87 184.17 16.61 189.45 16.61C193.54 16.61 196.19 18.83 197.89 21.3V7.98999H201.17V39.12H197.89V34.68C196.1 37.32 193.5 39.58 189.45 39.58C184.16 39.58 178.92 35.4 178.92 28.15V28.17ZM198.03 28.13V28.05C198.03 22.97 194.15 19.56 190.05 19.56C185.95 19.56 182.29 22.72 182.29 28.05V28.13C182.29 33.33 185.91 36.66 190.05 36.66C194.19 36.66 198.03 33.21 198.03 28.13Z" fill="#F7F7F7" />
		<path d="M58.71 38.8501C60.7 39.3401 63.41 42.0701 63.41 45.2201C63.41 42.0701 66.54 39.3301 67.85 38.9801" fill="#F7F7F7" />
		<path d="M59.3301 55.5801C59.3301 53.3201 62.2301 48.8601 63.4201 44.6001C64.4901 48.9101 67.5101 53.3301 67.5101 55.5801C67.5101 57.8301 65.6801 59.6701 63.4201 59.6701C61.1601 59.6701 59.3301 57.8401 59.3301 55.5801Z" fill="#F7F7F7" />
		<path d="M9.69 48.96H0.87C0.39 48.96 0 48.57 0 48.09V0.87C0 0.39 0.39 0 0.87 0H9.69C10.17 0 10.56 0.39 10.56 0.87V5.47C10.56 5.95 10.17 6.34 9.69 6.34H7.21C6.73 6.34 6.34 6.73 6.34 7.21V41.74C6.34 42.22 6.73 42.61 7.21 42.61H9.69C10.17 42.61 10.56 43 10.56 43.48V48.08C10.56 48.56 10.17 48.95 9.69 48.95V48.96Z" fill="#F7F7F7" />
		<path d="M214.05 48.96H205.23C204.75 48.96 204.36 48.57 204.36 48.09V43.49C204.36 43.01 204.75 42.62 205.23 42.62H207.71C208.19 42.62 208.58 42.23 208.58 41.75V7.21C208.58 6.73 208.19 6.34 207.71 6.34H205.23C204.75 6.34 204.36 5.95 204.36 5.47V0.87C204.36 0.39 204.75 0 205.23 0H214.05C214.53 0 214.92 0.39 214.92 0.87V48.08C214.92 48.56 214.53 48.95 214.05 48.95V48.96Z" fill="#F7F7F7" />
	</g>
	<defs>
		<clipPath id="clip0_2_1082">
			<rect width="214.92" height="59.67" fill="white" />
		</clipPath>
	</defs>
</svg>
